G04 start of page 12 for group -3984 idx -3984 *
G04 Title: (unknown), fab *
G04 Creator: pcb 20140316 *
G04 CreationDate: Sun 30 Dec 2018 07:25:55 PM GMT UTC *
G04 For: railfan *
G04 Format: Gerber/RS-274X *
G04 PCB-Dimensions (mil): 970.00 890.00 *
G04 PCB-Coordinate-Origin: lower left *
%MOIN*%
%FSLAX25Y25*%
%LNFAB*%
%ADD37C,0.0100*%
%ADD36C,0.0060*%
%ADD35C,0.0080*%
G54D35*X58500Y80100D02*Y76900D01*
X56900Y78500D02*X60100D01*
X48500Y80100D02*Y76900D01*
X46900Y78500D02*X50100D01*
X38500Y80100D02*Y76900D01*
X36900Y78500D02*X40100D01*
X58500Y70100D02*Y66900D01*
X56900Y68500D02*X60100D01*
X48500Y70100D02*Y66900D01*
X46900Y68500D02*X50100D01*
X38500Y70100D02*Y66900D01*
X36900Y68500D02*X40100D01*
X15000Y131850D02*Y128650D01*
X13400Y130250D02*X16600D01*
G54D36*X135000Y132500D02*Y131750D01*
X136500Y130250D01*
X138000Y131750D01*
Y132500D02*Y131750D01*
X136500Y130250D02*Y126500D01*
X139800Y129500D02*X142050D01*
X139800Y126500D02*X142800D01*
X139800Y132500D02*Y126500D01*
Y132500D02*X142800D01*
X147600D02*X148350Y131750D01*
X145350Y132500D02*X147600D01*
X144600Y131750D02*X145350Y132500D01*
X144600Y131750D02*Y130250D01*
X145350Y129500D01*
X147600D01*
X148350Y128750D01*
Y127250D01*
X147600Y126500D02*X148350Y127250D01*
X145350Y126500D02*X147600D01*
X144600Y127250D02*X145350Y126500D01*
X100250Y132500D02*X101000Y131750D01*
X98750Y132500D02*X100250D01*
X98000Y131750D02*X98750Y132500D01*
X98000Y131750D02*Y127250D01*
X98750Y126500D01*
X100250Y129500D02*X101000Y128750D01*
X98000Y129500D02*X100250D01*
X98750Y126500D02*X100250D01*
X101000Y127250D01*
Y128750D02*Y127250D01*
X45000D02*X45750Y126500D01*
X45000Y131750D02*Y127250D01*
Y131750D02*X45750Y132500D01*
X47250D01*
X48000Y131750D01*
Y127250D01*
X47250Y126500D02*X48000Y127250D01*
X45750Y126500D02*X47250D01*
X45000Y128000D02*X48000Y131000D01*
X49800Y126500D02*X50550D01*
X52350Y127250D02*X53100Y126500D01*
X52350Y131750D02*Y127250D01*
Y131750D02*X53100Y132500D01*
X54600D01*
X55350Y131750D01*
Y127250D01*
X54600Y126500D02*X55350Y127250D01*
X53100Y126500D02*X54600D01*
X52350Y128000D02*X55350Y131000D01*
X57150Y131750D02*X57900Y132500D01*
X59400D01*
X60150Y131750D01*
Y127250D01*
X59400Y126500D02*X60150Y127250D01*
X57900Y126500D02*X59400D01*
X57150Y127250D02*X57900Y126500D01*
Y129500D02*X60150D01*
X61950Y127250D02*X62700Y126500D01*
X61950Y128750D02*Y127250D01*
Y128750D02*X62700Y129500D01*
X64200D01*
X64950Y128750D01*
Y127250D01*
X64200Y126500D02*X64950Y127250D01*
X62700Y126500D02*X64200D01*
X61950Y130250D02*X62700Y129500D01*
X61950Y131750D02*Y130250D01*
Y131750D02*X62700Y132500D01*
X64200D01*
X64950Y131750D01*
Y130250D01*
X64200Y129500D02*X64950Y130250D01*
X5193Y80000D02*Y78400D01*
Y80000D02*X6580Y80800D01*
X5193Y80000D02*X3806Y80800D01*
X5193Y72126D02*Y70526D01*
Y72126D02*X6580Y72926D01*
X5193Y72126D02*X3806Y72926D01*
X5193Y64252D02*Y62652D01*
Y64252D02*X6580Y65052D01*
X5193Y64252D02*X3806Y65052D01*
X5193Y56378D02*Y54778D01*
Y56378D02*X6580Y57178D01*
X5193Y56378D02*X3806Y57178D01*
X5193Y48504D02*Y46904D01*
Y48504D02*X6580Y49304D01*
X5193Y48504D02*X3806Y49304D01*
X5193Y40630D02*Y39030D01*
Y40630D02*X6580Y41430D01*
X5193Y40630D02*X3806Y41430D01*
X5193Y32756D02*Y31156D01*
Y32756D02*X6580Y33556D01*
X5193Y32756D02*X3806Y33556D01*
X5193Y24882D02*Y23282D01*
Y24882D02*X6580Y25682D01*
X5193Y24882D02*X3806Y25682D01*
X5193Y17008D02*Y15408D01*
Y17008D02*X6580Y17808D01*
X5193Y17008D02*X3806Y17808D01*
X5193Y9134D02*Y7534D01*
Y9134D02*X6580Y9934D01*
X5193Y9134D02*X3806Y9934D01*
X91807Y80000D02*Y78400D01*
Y80000D02*X93194Y80800D01*
X91807Y80000D02*X90420Y80800D01*
X91807Y72126D02*Y70526D01*
Y72126D02*X93194Y72926D01*
X91807Y72126D02*X90420Y72926D01*
X91807Y64252D02*Y62652D01*
Y64252D02*X93194Y65052D01*
X91807Y64252D02*X90420Y65052D01*
X91807Y56378D02*Y54778D01*
Y56378D02*X93194Y57178D01*
X91807Y56378D02*X90420Y57178D01*
X91807Y48504D02*Y46904D01*
Y48504D02*X93194Y49304D01*
X91807Y48504D02*X90420Y49304D01*
X91807Y40630D02*Y39030D01*
Y40630D02*X93194Y41430D01*
X91807Y40630D02*X90420Y41430D01*
X91807Y32756D02*Y31156D01*
Y32756D02*X93194Y33556D01*
X91807Y32756D02*X90420Y33556D01*
X91807Y24882D02*Y23282D01*
Y24882D02*X93194Y25682D01*
X91807Y24882D02*X90420Y25682D01*
X91807Y17008D02*Y15408D01*
Y17008D02*X93194Y17808D01*
X91807Y17008D02*X90420Y17808D01*
X91807Y9134D02*Y7534D01*
Y9134D02*X93194Y9934D01*
X91807Y9134D02*X90420Y9934D01*
X15000Y145250D02*Y143650D01*
Y145250D02*X16387Y146050D01*
X15000Y145250D02*X13613Y146050D01*
X135000Y147500D02*Y146750D01*
X136500Y145250D01*
X138000Y146750D01*
Y147500D02*Y146750D01*
X136500Y145250D02*Y141500D01*
X139800Y144500D02*X142050D01*
X139800Y141500D02*X142800D01*
X139800Y147500D02*Y141500D01*
Y147500D02*X142800D01*
X147600D02*X148350Y146750D01*
X145350Y147500D02*X147600D01*
X144600Y146750D02*X145350Y147500D01*
X144600Y146750D02*Y145250D01*
X145350Y144500D01*
X147600D01*
X148350Y143750D01*
Y142250D01*
X147600Y141500D02*X148350Y142250D01*
X145350Y141500D02*X147600D01*
X144600Y142250D02*X145350Y141500D01*
X98000Y146750D02*X98750Y147500D01*
X101000D01*
X101750Y146750D01*
Y145250D01*
X98000Y141500D02*X101750Y145250D01*
X98000Y141500D02*X101750D01*
X103550Y142250D02*X104300Y141500D01*
X103550Y146750D02*Y142250D01*
Y146750D02*X104300Y147500D01*
X105800D01*
X106550Y146750D01*
Y142250D01*
X105800Y141500D02*X106550Y142250D01*
X104300Y141500D02*X105800D01*
X103550Y143000D02*X106550Y146000D01*
X45000Y142250D02*X45750Y141500D01*
X45000Y146750D02*Y142250D01*
Y146750D02*X45750Y147500D01*
X47250D01*
X48000Y146750D01*
Y142250D01*
X47250Y141500D02*X48000Y142250D01*
X45750Y141500D02*X47250D01*
X45000Y143000D02*X48000Y146000D01*
X49800Y141500D02*X50550D01*
X52350Y142250D02*X53100Y141500D01*
X52350Y146750D02*Y142250D01*
Y146750D02*X53100Y147500D01*
X54600D01*
X55350Y146750D01*
Y142250D01*
X54600Y141500D02*X55350Y142250D01*
X53100Y141500D02*X54600D01*
X52350Y143000D02*X55350Y146000D01*
X57150Y146750D02*X57900Y147500D01*
X59400D01*
X60150Y146750D01*
Y142250D01*
X59400Y141500D02*X60150Y142250D01*
X57900Y141500D02*X59400D01*
X57150Y142250D02*X57900Y141500D01*
Y144500D02*X60150D01*
X61950Y146750D02*X62700Y147500D01*
X64950D01*
X65700Y146750D01*
Y145250D01*
X61950Y141500D02*X65700Y145250D01*
X61950Y141500D02*X65700D01*
X3000Y162500D02*X3750Y161750D01*
X750Y162500D02*X3000D01*
X0Y161750D02*X750Y162500D01*
X0Y161750D02*Y160250D01*
X750Y159500D01*
X3000D01*
X3750Y158750D01*
Y157250D01*
X3000Y156500D02*X3750Y157250D01*
X750Y156500D02*X3000D01*
X0Y157250D02*X750Y156500D01*
X5550Y159500D02*Y157250D01*
X6300Y156500D01*
X8550Y159500D02*Y155000D01*
X7800Y154250D02*X8550Y155000D01*
X6300Y154250D02*X7800D01*
X5550Y155000D02*X6300Y154250D01*
Y156500D02*X7800D01*
X8550Y157250D01*
X11100Y158750D02*Y156500D01*
Y158750D02*X11850Y159500D01*
X12600D01*
X13350Y158750D01*
Y156500D01*
Y158750D02*X14100Y159500D01*
X14850D01*
X15600Y158750D01*
Y156500D01*
X10350Y159500D02*X11100Y158750D01*
X17400Y162500D02*Y156500D01*
Y157250D02*X18150Y156500D01*
X19650D01*
X20400Y157250D01*
Y158750D02*Y157250D01*
X19650Y159500D02*X20400Y158750D01*
X18150Y159500D02*X19650D01*
X17400Y158750D02*X18150Y159500D01*
X22200Y158750D02*Y157250D01*
Y158750D02*X22950Y159500D01*
X24450D01*
X25200Y158750D01*
Y157250D01*
X24450Y156500D02*X25200Y157250D01*
X22950Y156500D02*X24450D01*
X22200Y157250D02*X22950Y156500D01*
X27000Y162500D02*Y157250D01*
X27750Y156500D01*
X0Y153250D02*X29250D01*
X41750Y162500D02*Y156500D01*
X44000Y162500D02*X44750Y161750D01*
Y157250D01*
X44000Y156500D02*X44750Y157250D01*
X41000Y156500D02*X44000D01*
X41000Y162500D02*X44000D01*
X46550Y161000D02*Y160250D01*
Y158750D02*Y156500D01*
X50300Y159500D02*X51050Y158750D01*
X48800Y159500D02*X50300D01*
X48050Y158750D02*X48800Y159500D01*
X48050Y158750D02*Y157250D01*
X48800Y156500D01*
X51050Y159500D02*Y157250D01*
X51800Y156500D01*
X48800D02*X50300D01*
X51050Y157250D01*
X54350Y158750D02*Y156500D01*
Y158750D02*X55100Y159500D01*
X55850D01*
X56600Y158750D01*
Y156500D01*
Y158750D02*X57350Y159500D01*
X58100D01*
X58850Y158750D01*
Y156500D01*
X53600Y159500D02*X54350Y158750D01*
X60650Y156500D02*X61400D01*
X65900Y157250D02*X66650Y156500D01*
X65900Y161750D02*X66650Y162500D01*
X65900Y161750D02*Y157250D01*
X68450Y162500D02*X69950D01*
X69200D02*Y156500D01*
X68450D02*X69950D01*
X72500Y158750D02*Y156500D01*
Y158750D02*X73250Y159500D01*
X74000D01*
X74750Y158750D01*
Y156500D01*
X71750Y159500D02*X72500Y158750D01*
X77300Y159500D02*X79550D01*
X76550Y158750D02*X77300Y159500D01*
X76550Y158750D02*Y157250D01*
X77300Y156500D01*
X79550D01*
X81350Y162500D02*Y156500D01*
Y158750D02*X82100Y159500D01*
X83600D01*
X84350Y158750D01*
Y156500D01*
X86150Y162500D02*X86900Y161750D01*
Y157250D01*
X86150Y156500D02*X86900Y157250D01*
X41000Y153250D02*X88700D01*
X95750Y156500D02*X98000D01*
X95000Y157250D02*X95750Y156500D01*
X95000Y161750D02*Y157250D01*
Y161750D02*X95750Y162500D01*
X98000D01*
X99800Y158750D02*Y157250D01*
Y158750D02*X100550Y159500D01*
X102050D01*
X102800Y158750D01*
Y157250D01*
X102050Y156500D02*X102800Y157250D01*
X100550Y156500D02*X102050D01*
X99800Y157250D02*X100550Y156500D01*
X104600Y159500D02*Y157250D01*
X105350Y156500D01*
X106850D01*
X107600Y157250D01*
Y159500D02*Y157250D01*
X110150Y158750D02*Y156500D01*
Y158750D02*X110900Y159500D01*
X111650D01*
X112400Y158750D01*
Y156500D01*
X109400Y159500D02*X110150Y158750D01*
X114950Y162500D02*Y157250D01*
X115700Y156500D01*
X114200Y160250D02*X115700D01*
X95000Y153250D02*X117200D01*
X130750Y162500D02*Y156500D01*
X130000Y162500D02*X133000D01*
X133750Y161750D01*
Y160250D01*
X133000Y159500D02*X133750Y160250D01*
X130750Y159500D02*X133000D01*
X135550Y162500D02*Y157250D01*
X136300Y156500D01*
X140050Y159500D02*X140800Y158750D01*
X138550Y159500D02*X140050D01*
X137800Y158750D02*X138550Y159500D01*
X137800Y158750D02*Y157250D01*
X138550Y156500D01*
X140800Y159500D02*Y157250D01*
X141550Y156500D01*
X138550D02*X140050D01*
X140800Y157250D01*
X144100Y162500D02*Y157250D01*
X144850Y156500D01*
X143350Y160250D02*X144850D01*
X147100Y156500D02*X149350D01*
X146350Y157250D02*X147100Y156500D01*
X146350Y158750D02*Y157250D01*
Y158750D02*X147100Y159500D01*
X148600D01*
X149350Y158750D01*
X146350Y158000D02*X149350D01*
Y158750D02*Y158000D01*
X154150Y162500D02*Y156500D01*
X153400D02*X154150Y157250D01*
X151900Y156500D02*X153400D01*
X151150Y157250D02*X151900Y156500D01*
X151150Y158750D02*Y157250D01*
Y158750D02*X151900Y159500D01*
X153400D01*
X154150Y158750D01*
X157450Y159500D02*Y158750D01*
Y157250D02*Y156500D01*
X155950Y161750D02*Y161000D01*
Y161750D02*X156700Y162500D01*
X158200D01*
X158950Y161750D01*
Y161000D01*
X157450Y159500D02*X158950Y161000D01*
X130000Y153250D02*X160750D01*
X0Y177500D02*X3000D01*
X1500D02*Y171500D01*
X4800Y177500D02*Y171500D01*
Y173750D02*X5550Y174500D01*
X7050D01*
X7800Y173750D01*
Y171500D01*
X10350D02*X12600D01*
X9600Y172250D02*X10350Y171500D01*
X9600Y173750D02*Y172250D01*
Y173750D02*X10350Y174500D01*
X11850D01*
X12600Y173750D01*
X9600Y173000D02*X12600D01*
Y173750D02*Y173000D01*
X15150Y173750D02*Y171500D01*
Y173750D02*X15900Y174500D01*
X17400D01*
X14400D02*X15150Y173750D01*
X19950Y171500D02*X22200D01*
X19200Y172250D02*X19950Y171500D01*
X19200Y173750D02*Y172250D01*
Y173750D02*X19950Y174500D01*
X21450D01*
X22200Y173750D01*
X19200Y173000D02*X22200D01*
Y173750D02*Y173000D01*
X28950Y174500D02*X29700Y173750D01*
X27450Y174500D02*X28950D01*
X26700Y173750D02*X27450Y174500D01*
X26700Y173750D02*Y172250D01*
X27450Y171500D01*
X29700Y174500D02*Y172250D01*
X30450Y171500D01*
X27450D02*X28950D01*
X29700Y172250D01*
X33000Y173750D02*Y171500D01*
Y173750D02*X33750Y174500D01*
X35250D01*
X32250D02*X33000Y173750D01*
X37800Y171500D02*X40050D01*
X37050Y172250D02*X37800Y171500D01*
X37050Y173750D02*Y172250D01*
Y173750D02*X37800Y174500D01*
X39300D01*
X40050Y173750D01*
X37050Y173000D02*X40050D01*
Y173750D02*Y173000D01*
X44550Y176750D02*X45300Y177500D01*
X47550D01*
X48300Y176750D01*
Y175250D01*
X44550Y171500D02*X48300Y175250D01*
X44550Y171500D02*X48300D01*
X55800Y177500D02*Y171500D01*
X55050D02*X55800Y172250D01*
X53550Y171500D02*X55050D01*
X52800Y172250D02*X53550Y171500D01*
X52800Y173750D02*Y172250D01*
Y173750D02*X53550Y174500D01*
X55050D01*
X55800Y173750D01*
X57600Y176000D02*Y175250D01*
Y173750D02*Y171500D01*
X59850Y176750D02*Y171500D01*
Y176750D02*X60600Y177500D01*
X61350D01*
X59100Y174500D02*X60600D01*
X63600Y176750D02*Y171500D01*
Y176750D02*X64350Y177500D01*
X65100D01*
X62850Y174500D02*X64350D01*
X67350Y171500D02*X69600D01*
X66600Y172250D02*X67350Y171500D01*
X66600Y173750D02*Y172250D01*
Y173750D02*X67350Y174500D01*
X68850D01*
X69600Y173750D01*
X66600Y173000D02*X69600D01*
Y173750D02*Y173000D01*
X72150Y173750D02*Y171500D01*
Y173750D02*X72900Y174500D01*
X74400D01*
X71400D02*X72150Y173750D01*
X76950Y171500D02*X79200D01*
X76200Y172250D02*X76950Y171500D01*
X76200Y173750D02*Y172250D01*
Y173750D02*X76950Y174500D01*
X78450D01*
X79200Y173750D01*
X76200Y173000D02*X79200D01*
Y173750D02*Y173000D01*
X81750Y173750D02*Y171500D01*
Y173750D02*X82500Y174500D01*
X83250D01*
X84000Y173750D01*
Y171500D01*
X81000Y174500D02*X81750Y173750D01*
X86550Y177500D02*Y172250D01*
X87300Y171500D01*
X85800Y175250D02*X87300D01*
X94500Y177500D02*Y171500D01*
X93750D02*X94500Y172250D01*
X92250Y171500D02*X93750D01*
X91500Y172250D02*X92250Y171500D01*
X91500Y173750D02*Y172250D01*
Y173750D02*X92250Y174500D01*
X93750D01*
X94500Y173750D01*
X97050D02*Y171500D01*
Y173750D02*X97800Y174500D01*
X99300D01*
X96300D02*X97050Y173750D01*
X101100Y176000D02*Y175250D01*
Y173750D02*Y171500D01*
X102600Y177500D02*Y172250D01*
X103350Y171500D01*
X104850Y177500D02*Y172250D01*
X105600Y171500D01*
X110550D02*X112800D01*
X113550Y172250D01*
X112800Y173000D02*X113550Y172250D01*
X110550Y173000D02*X112800D01*
X109800Y173750D02*X110550Y173000D01*
X109800Y173750D02*X110550Y174500D01*
X112800D01*
X113550Y173750D01*
X109800Y172250D02*X110550Y171500D01*
X115350Y176000D02*Y175250D01*
Y173750D02*Y171500D01*
X116850Y174500D02*X119850D01*
X116850Y171500D02*X119850Y174500D01*
X116850Y171500D02*X119850D01*
X122400D02*X124650D01*
X121650Y172250D02*X122400Y171500D01*
X121650Y173750D02*Y172250D01*
Y173750D02*X122400Y174500D01*
X123900D01*
X124650Y173750D01*
X121650Y173000D02*X124650D01*
Y173750D02*Y173000D01*
X127200Y171500D02*X129450D01*
X130200Y172250D01*
X129450Y173000D02*X130200Y172250D01*
X127200Y173000D02*X129450D01*
X126450Y173750D02*X127200Y173000D01*
X126450Y173750D02*X127200Y174500D01*
X129450D01*
X130200Y173750D01*
X126450Y172250D02*X127200Y171500D01*
X134700Y174500D02*Y172250D01*
X135450Y171500D01*
X136950D01*
X137700Y172250D01*
Y174500D02*Y172250D01*
X140250Y171500D02*X142500D01*
X143250Y172250D01*
X142500Y173000D02*X143250Y172250D01*
X140250Y173000D02*X142500D01*
X139500Y173750D02*X140250Y173000D01*
X139500Y173750D02*X140250Y174500D01*
X142500D01*
X143250Y173750D01*
X139500Y172250D02*X140250Y171500D01*
X145800D02*X148050D01*
X145050Y172250D02*X145800Y171500D01*
X145050Y173750D02*Y172250D01*
Y173750D02*X145800Y174500D01*
X147300D01*
X148050Y173750D01*
X145050Y173000D02*X148050D01*
Y173750D02*Y173000D01*
X152850Y177500D02*Y171500D01*
X152100D02*X152850Y172250D01*
X150600Y171500D02*X152100D01*
X149850Y172250D02*X150600Y171500D01*
X149850Y173750D02*Y172250D01*
Y173750D02*X150600Y174500D01*
X152100D01*
X152850Y173750D01*
X157350Y176000D02*Y175250D01*
Y173750D02*Y171500D01*
X159600Y173750D02*Y171500D01*
Y173750D02*X160350Y174500D01*
X161100D01*
X161850Y173750D01*
Y171500D01*
X158850Y174500D02*X159600Y173750D01*
X167100Y177500D02*Y172250D01*
X167850Y171500D01*
X166350Y175250D02*X167850D01*
X169350Y177500D02*Y171500D01*
Y173750D02*X170100Y174500D01*
X171600D01*
X172350Y173750D01*
Y171500D01*
X174150Y176000D02*Y175250D01*
Y173750D02*Y171500D01*
X176400D02*X178650D01*
X179400Y172250D01*
X178650Y173000D02*X179400Y172250D01*
X176400Y173000D02*X178650D01*
X175650Y173750D02*X176400Y173000D01*
X175650Y173750D02*X176400Y174500D01*
X178650D01*
X179400Y173750D01*
X175650Y172250D02*X176400Y171500D01*
X183900Y177500D02*Y172250D01*
X184650Y171500D01*
X188400Y174500D02*X189150Y173750D01*
X186900Y174500D02*X188400D01*
X186150Y173750D02*X186900Y174500D01*
X186150Y173750D02*Y172250D01*
X186900Y171500D01*
X189150Y174500D02*Y172250D01*
X189900Y171500D01*
X186900D02*X188400D01*
X189150Y172250D01*
X191700Y174500D02*Y172250D01*
X192450Y171500D01*
X194700Y174500D02*Y170000D01*
X193950Y169250D02*X194700Y170000D01*
X192450Y169250D02*X193950D01*
X191700Y170000D02*X192450Y169250D01*
Y171500D02*X193950D01*
X194700Y172250D01*
X196500Y173750D02*Y172250D01*
Y173750D02*X197250Y174500D01*
X198750D01*
X199500Y173750D01*
Y172250D01*
X198750Y171500D02*X199500Y172250D01*
X197250Y171500D02*X198750D01*
X196500Y172250D02*X197250Y171500D01*
X201300Y174500D02*Y172250D01*
X202050Y171500D01*
X203550D01*
X204300Y172250D01*
Y174500D02*Y172250D01*
X206850Y177500D02*Y172250D01*
X207600Y171500D01*
X206100Y175250D02*X207600D01*
X209100Y170000D02*X210600Y171500D01*
X215100Y176750D02*X215850Y177500D01*
X218100D01*
X218850Y176750D01*
Y175250D01*
X215100Y171500D02*X218850Y175250D01*
X215100Y171500D02*X218850D01*
X222900Y177500D02*X223650Y176750D01*
X221400Y177500D02*X222900D01*
X220650Y176750D02*X221400Y177500D01*
X220650Y176750D02*Y172250D01*
X221400Y171500D01*
X222900Y174500D02*X223650Y173750D01*
X220650Y174500D02*X222900D01*
X221400Y171500D02*X222900D01*
X223650Y172250D01*
Y173750D02*Y172250D01*
X228150Y177500D02*Y171500D01*
Y173750D02*X228900Y174500D01*
X230400D01*
X231150Y173750D01*
Y171500D01*
X232950Y173750D02*Y172250D01*
Y173750D02*X233700Y174500D01*
X235200D01*
X235950Y173750D01*
Y172250D01*
X235200Y171500D02*X235950Y172250D01*
X233700Y171500D02*X235200D01*
X232950Y172250D02*X233700Y171500D01*
X237750Y177500D02*Y172250D01*
X238500Y171500D01*
X240750D02*X243000D01*
X240000Y172250D02*X240750Y171500D01*
X240000Y173750D02*Y172250D01*
Y173750D02*X240750Y174500D01*
X242250D01*
X243000Y173750D01*
X240000Y173000D02*X243000D01*
Y173750D02*Y173000D01*
X245550Y171500D02*X247800D01*
X248550Y172250D01*
X247800Y173000D02*X248550Y172250D01*
X245550Y173000D02*X247800D01*
X244800Y173750D02*X245550Y173000D01*
X244800Y173750D02*X245550Y174500D01*
X247800D01*
X248550Y173750D01*
X244800Y172250D02*X245550Y171500D01*
X253800Y177500D02*Y172250D01*
X254550Y171500D01*
X253050Y175250D02*X254550D01*
X256050Y173750D02*Y172250D01*
Y173750D02*X256800Y174500D01*
X258300D01*
X259050Y173750D01*
Y172250D01*
X258300Y171500D02*X259050Y172250D01*
X256800Y171500D02*X258300D01*
X256050Y172250D02*X256800Y171500D01*
X261600Y177500D02*Y172250D01*
X262350Y171500D01*
X260850Y175250D02*X262350D01*
X266100Y174500D02*X266850Y173750D01*
X264600Y174500D02*X266100D01*
X263850Y173750D02*X264600Y174500D01*
X263850Y173750D02*Y172250D01*
X264600Y171500D01*
X266850Y174500D02*Y172250D01*
X267600Y171500D01*
X264600D02*X266100D01*
X266850Y172250D01*
X269400Y177500D02*Y172250D01*
X270150Y171500D01*
G54D37*X97000Y0D02*X0D01*
Y89000D01*
X97000D01*
Y0D01*
G54D36*X0Y-9500D02*X3000D01*
X3750Y-8750D01*
Y-7250D02*Y-8750D01*
X3000Y-6500D02*X3750Y-7250D01*
X750Y-6500D02*X3000D01*
X750Y-3500D02*Y-9500D01*
X0Y-3500D02*X3000D01*
X3750Y-4250D01*
Y-5750D01*
X3000Y-6500D02*X3750Y-5750D01*
X5550Y-7250D02*Y-8750D01*
Y-7250D02*X6300Y-6500D01*
X7800D01*
X8550Y-7250D01*
Y-8750D01*
X7800Y-9500D02*X8550Y-8750D01*
X6300Y-9500D02*X7800D01*
X5550Y-8750D02*X6300Y-9500D01*
X12600Y-6500D02*X13350Y-7250D01*
X11100Y-6500D02*X12600D01*
X10350Y-7250D02*X11100Y-6500D01*
X10350Y-7250D02*Y-8750D01*
X11100Y-9500D01*
X13350Y-6500D02*Y-8750D01*
X14100Y-9500D01*
X11100D02*X12600D01*
X13350Y-8750D01*
X16650Y-7250D02*Y-9500D01*
Y-7250D02*X17400Y-6500D01*
X18900D01*
X15900D02*X16650Y-7250D01*
X23700Y-3500D02*Y-9500D01*
X22950D02*X23700Y-8750D01*
X21450Y-9500D02*X22950D01*
X20700Y-8750D02*X21450Y-9500D01*
X20700Y-7250D02*Y-8750D01*
Y-7250D02*X21450Y-6500D01*
X22950D01*
X23700Y-7250D01*
X28200D02*Y-8750D01*
Y-7250D02*X28950Y-6500D01*
X30450D01*
X31200Y-7250D01*
Y-8750D01*
X30450Y-9500D02*X31200Y-8750D01*
X28950Y-9500D02*X30450D01*
X28200Y-8750D02*X28950Y-9500D01*
X33000Y-6500D02*Y-8750D01*
X33750Y-9500D01*
X35250D01*
X36000Y-8750D01*
Y-6500D02*Y-8750D01*
X38550Y-3500D02*Y-8750D01*
X39300Y-9500D01*
X37800Y-5750D02*X39300D01*
X40800Y-3500D02*Y-8750D01*
X41550Y-9500D01*
X43050Y-5000D02*Y-5750D01*
Y-7250D02*Y-9500D01*
X45300Y-7250D02*Y-9500D01*
Y-7250D02*X46050Y-6500D01*
X46800D01*
X47550Y-7250D01*
Y-9500D01*
X44550Y-6500D02*X45300Y-7250D01*
X50100Y-9500D02*X52350D01*
X49350Y-8750D02*X50100Y-9500D01*
X49350Y-7250D02*Y-8750D01*
Y-7250D02*X50100Y-6500D01*
X51600D01*
X52350Y-7250D01*
X49350Y-8000D02*X52350D01*
Y-7250D02*Y-8000D01*
X56850Y-5000D02*Y-5750D01*
Y-7250D02*Y-9500D01*
X59100D02*X61350D01*
X62100Y-8750D01*
X61350Y-8000D02*X62100Y-8750D01*
X59100Y-8000D02*X61350D01*
X58350Y-7250D02*X59100Y-8000D01*
X58350Y-7250D02*X59100Y-6500D01*
X61350D01*
X62100Y-7250D01*
X58350Y-8750D02*X59100Y-9500D01*
X67350Y-3500D02*Y-8750D01*
X68100Y-9500D01*
X66600Y-5750D02*X68100D01*
X69600Y-3500D02*Y-9500D01*
Y-7250D02*X70350Y-6500D01*
X71850D01*
X72600Y-7250D01*
Y-9500D01*
X75150D02*X77400D01*
X74400Y-8750D02*X75150Y-9500D01*
X74400Y-7250D02*Y-8750D01*
Y-7250D02*X75150Y-6500D01*
X76650D01*
X77400Y-7250D01*
X74400Y-8000D02*X77400D01*
Y-7250D02*Y-8000D01*
X82650Y-6500D02*X84900D01*
X81900Y-7250D02*X82650Y-6500D01*
X81900Y-7250D02*Y-8750D01*
X82650Y-9500D01*
X84900D01*
X87450D02*X89700D01*
X86700Y-8750D02*X87450Y-9500D01*
X86700Y-7250D02*Y-8750D01*
Y-7250D02*X87450Y-6500D01*
X88950D01*
X89700Y-7250D01*
X86700Y-8000D02*X89700D01*
Y-7250D02*Y-8000D01*
X92250Y-7250D02*Y-9500D01*
Y-7250D02*X93000Y-6500D01*
X93750D01*
X94500Y-7250D01*
Y-9500D01*
X91500Y-6500D02*X92250Y-7250D01*
X97050Y-3500D02*Y-8750D01*
X97800Y-9500D01*
X96300Y-5750D02*X97800D01*
X100050Y-9500D02*X102300D01*
X99300Y-8750D02*X100050Y-9500D01*
X99300Y-7250D02*Y-8750D01*
Y-7250D02*X100050Y-6500D01*
X101550D01*
X102300Y-7250D01*
X99300Y-8000D02*X102300D01*
Y-7250D02*Y-8000D01*
X104850Y-7250D02*Y-9500D01*
Y-7250D02*X105600Y-6500D01*
X107100D01*
X104100D02*X104850Y-7250D01*
X108900Y-3500D02*Y-8750D01*
X109650Y-9500D01*
X111150Y-5000D02*Y-5750D01*
Y-7250D02*Y-9500D01*
X113400Y-7250D02*Y-9500D01*
Y-7250D02*X114150Y-6500D01*
X114900D01*
X115650Y-7250D01*
Y-9500D01*
X112650Y-6500D02*X113400Y-7250D01*
X118200Y-9500D02*X120450D01*
X117450Y-8750D02*X118200Y-9500D01*
X117450Y-7250D02*Y-8750D01*
Y-7250D02*X118200Y-6500D01*
X119700D01*
X120450Y-7250D01*
X117450Y-8000D02*X120450D01*
Y-7250D02*Y-8000D01*
X124950Y-7250D02*Y-8750D01*
Y-7250D02*X125700Y-6500D01*
X127200D01*
X127950Y-7250D01*
Y-8750D01*
X127200Y-9500D02*X127950Y-8750D01*
X125700Y-9500D02*X127200D01*
X124950Y-8750D02*X125700Y-9500D01*
X130500Y-4250D02*Y-9500D01*
Y-4250D02*X131250Y-3500D01*
X132000D01*
X129750Y-6500D02*X131250D01*
X136950Y-3500D02*Y-8750D01*
X137700Y-9500D01*
X136200Y-5750D02*X137700D01*
X139200Y-3500D02*Y-9500D01*
Y-7250D02*X139950Y-6500D01*
X141450D01*
X142200Y-7250D01*
Y-9500D01*
X144000Y-5000D02*Y-5750D01*
Y-7250D02*Y-9500D01*
X146250D02*X148500D01*
X149250Y-8750D01*
X148500Y-8000D02*X149250Y-8750D01*
X146250Y-8000D02*X148500D01*
X145500Y-7250D02*X146250Y-8000D01*
X145500Y-7250D02*X146250Y-6500D01*
X148500D01*
X149250Y-7250D01*
X145500Y-8750D02*X146250Y-9500D01*
X154500Y-7250D02*Y-11750D01*
X153750Y-6500D02*X154500Y-7250D01*
X155250Y-6500D01*
X156750D01*
X157500Y-7250D01*
Y-8750D01*
X156750Y-9500D02*X157500Y-8750D01*
X155250Y-9500D02*X156750D01*
X154500Y-8750D02*X155250Y-9500D01*
X161550Y-6500D02*X162300Y-7250D01*
X160050Y-6500D02*X161550D01*
X159300Y-7250D02*X160050Y-6500D01*
X159300Y-7250D02*Y-8750D01*
X160050Y-9500D01*
X162300Y-6500D02*Y-8750D01*
X163050Y-9500D01*
X160050D02*X161550D01*
X162300Y-8750D01*
X165600Y-3500D02*Y-8750D01*
X166350Y-9500D01*
X164850Y-5750D02*X166350D01*
X167850Y-3500D02*Y-9500D01*
Y-7250D02*X168600Y-6500D01*
X170100D01*
X170850Y-7250D01*
Y-9500D01*
X200750Y117500D02*Y111500D01*
X203000Y117500D02*X203750Y116750D01*
Y112250D01*
X203000Y111500D02*X203750Y112250D01*
X200000Y111500D02*X203000D01*
X200000Y117500D02*X203000D01*
X207800Y114500D02*X208550Y113750D01*
X206300Y114500D02*X207800D01*
X205550Y113750D02*X206300Y114500D01*
X205550Y113750D02*Y112250D01*
X206300Y111500D01*
X208550Y114500D02*Y112250D01*
X209300Y111500D01*
X206300D02*X207800D01*
X208550Y112250D01*
X211850Y117500D02*Y112250D01*
X212600Y111500D01*
X211100Y115250D02*X212600D01*
X214850Y111500D02*X217100D01*
X214100Y112250D02*X214850Y111500D01*
X214100Y113750D02*Y112250D01*
Y113750D02*X214850Y114500D01*
X216350D01*
X217100Y113750D01*
X214100Y113000D02*X217100D01*
Y113750D02*Y113000D01*
X218900Y115250D02*X219650D01*
X218900Y113750D02*X219650D01*
X227150Y117500D02*X227900Y116750D01*
X224900Y117500D02*X227150D01*
X224150Y116750D02*X224900Y117500D01*
X224150Y116750D02*Y115250D01*
X224900Y114500D01*
X227150D01*
X227900Y113750D01*
Y112250D01*
X227150Y111500D02*X227900Y112250D01*
X224900Y111500D02*X227150D01*
X224150Y112250D02*X224900Y111500D01*
X229700Y114500D02*Y112250D01*
X230450Y111500D01*
X231950D01*
X232700Y112250D01*
Y114500D02*Y112250D01*
X235250Y113750D02*Y111500D01*
Y113750D02*X236000Y114500D01*
X236750D01*
X237500Y113750D01*
Y111500D01*
X234500Y114500D02*X235250Y113750D01*
X242000Y116750D02*X242750Y117500D01*
X244250D01*
X245000Y116750D01*
Y112250D01*
X244250Y111500D02*X245000Y112250D01*
X242750Y111500D02*X244250D01*
X242000Y112250D02*X242750Y111500D01*
Y114500D02*X245000D01*
X246800Y112250D02*X247550Y111500D01*
X246800Y116750D02*Y112250D01*
Y116750D02*X247550Y117500D01*
X249050D01*
X249800Y116750D01*
Y112250D01*
X249050Y111500D02*X249800Y112250D01*
X247550Y111500D02*X249050D01*
X246800Y113000D02*X249800Y116000D01*
X255050Y117500D02*Y111500D01*
X257300Y117500D02*X258050Y116750D01*
Y112250D01*
X257300Y111500D02*X258050Y112250D01*
X254300Y111500D02*X257300D01*
X254300Y117500D02*X257300D01*
X260600Y111500D02*X262850D01*
X259850Y112250D02*X260600Y111500D01*
X259850Y113750D02*Y112250D01*
Y113750D02*X260600Y114500D01*
X262100D01*
X262850Y113750D01*
X259850Y113000D02*X262850D01*
Y113750D02*Y113000D01*
X265400Y114500D02*X267650D01*
X264650Y113750D02*X265400Y114500D01*
X264650Y113750D02*Y112250D01*
X265400Y111500D01*
X267650D01*
X272150Y116750D02*X272900Y117500D01*
X275150D01*
X275900Y116750D01*
Y115250D01*
X272150Y111500D02*X275900Y115250D01*
X272150Y111500D02*X275900D01*
X277700Y112250D02*X278450Y111500D01*
X277700Y116750D02*Y112250D01*
Y116750D02*X278450Y117500D01*
X279950D01*
X280700Y116750D01*
Y112250D01*
X279950Y111500D02*X280700Y112250D01*
X278450Y111500D02*X279950D01*
X277700Y113000D02*X280700Y116000D01*
X283250Y111500D02*X284750D01*
X284000Y117500D02*Y111500D01*
X282500Y116000D02*X284000Y117500D01*
X286550Y112250D02*X287300Y111500D01*
X286550Y113750D02*Y112250D01*
Y113750D02*X287300Y114500D01*
X288800D01*
X289550Y113750D01*
Y112250D01*
X288800Y111500D02*X289550Y112250D01*
X287300Y111500D02*X288800D01*
X286550Y115250D02*X287300Y114500D01*
X286550Y116750D02*Y115250D01*
Y116750D02*X287300Y117500D01*
X288800D01*
X289550Y116750D01*
Y115250D01*
X288800Y114500D02*X289550Y115250D01*
X294050Y112250D02*X294800Y111500D01*
X294050Y116750D02*Y112250D01*
Y116750D02*X294800Y117500D01*
X296300D01*
X297050Y116750D01*
Y112250D01*
X296300Y111500D02*X297050Y112250D01*
X294800Y111500D02*X296300D01*
X294050Y113000D02*X297050Y116000D01*
X298850Y111500D02*X302600Y115250D01*
Y117500D02*Y115250D01*
X298850Y117500D02*X302600D01*
X304400Y115250D02*X305150D01*
X304400Y113750D02*X305150D01*
X306950Y116750D02*X307700Y117500D01*
X309950D01*
X310700Y116750D01*
Y115250D01*
X306950Y111500D02*X310700Y115250D01*
X306950Y111500D02*X310700D01*
X312500Y117500D02*X315500D01*
X312500D02*Y114500D01*
X313250Y115250D01*
X314750D01*
X315500Y114500D01*
Y112250D01*
X314750Y111500D02*X315500Y112250D01*
X313250Y111500D02*X314750D01*
X312500Y112250D02*X313250Y111500D01*
X317300Y115250D02*X318050D01*
X317300Y113750D02*X318050D01*
X319850Y117500D02*X322850D01*
X319850D02*Y114500D01*
X320600Y115250D01*
X322100D01*
X322850Y114500D01*
Y112250D01*
X322100Y111500D02*X322850Y112250D01*
X320600Y111500D02*X322100D01*
X319850Y112250D02*X320600Y111500D01*
X324650Y117500D02*X327650D01*
X324650D02*Y114500D01*
X325400Y115250D01*
X326900D01*
X327650Y114500D01*
Y112250D01*
X326900Y111500D02*X327650Y112250D01*
X325400Y111500D02*X326900D01*
X324650Y112250D02*X325400Y111500D01*
X332900Y117500D02*Y111500D01*
X332150Y117500D02*X335150D01*
X335900Y116750D01*
Y115250D01*
X335150Y114500D02*X335900Y115250D01*
X332900Y114500D02*X335150D01*
X337700Y117500D02*Y111500D01*
Y117500D02*X339950Y115250D01*
X342200Y117500D01*
Y111500D01*
X349700Y117500D02*X350450Y116750D01*
X347450Y117500D02*X349700D01*
X346700Y116750D02*X347450Y117500D01*
X346700Y116750D02*Y112250D01*
X347450Y111500D01*
X349700D01*
X350450Y112250D01*
Y113750D02*Y112250D01*
X349700Y114500D02*X350450Y113750D01*
X348200Y114500D02*X349700D01*
X352250Y117500D02*Y111500D01*
Y117500D02*X354500Y115250D01*
X356750Y117500D01*
Y111500D01*
X358550Y117500D02*X361550D01*
X360050D02*Y111500D01*
X366050Y117500D02*Y112250D01*
X366800Y111500D01*
X368300D01*
X369050Y112250D01*
Y117500D02*Y112250D01*
X370850Y117500D02*X373850D01*
X372350D02*Y111500D01*
X376400D02*X378650D01*
X375650Y112250D02*X376400Y111500D01*
X375650Y116750D02*Y112250D01*
Y116750D02*X376400Y117500D01*
X378650D01*
X200000Y131750D02*Y126500D01*
Y131750D02*X200750Y132500D01*
X203000D01*
X203750Y131750D01*
Y126500D01*
X200000Y129500D02*X203750D01*
X205550D02*Y127250D01*
X206300Y126500D01*
X207800D01*
X208550Y127250D01*
Y129500D02*Y127250D01*
X211100Y132500D02*Y127250D01*
X211850Y126500D01*
X210350Y130250D02*X211850D01*
X213350Y132500D02*Y126500D01*
Y128750D02*X214100Y129500D01*
X215600D01*
X216350Y128750D01*
Y126500D01*
X218150Y128750D02*Y127250D01*
Y128750D02*X218900Y129500D01*
X220400D01*
X221150Y128750D01*
Y127250D01*
X220400Y126500D02*X221150Y127250D01*
X218900Y126500D02*X220400D01*
X218150Y127250D02*X218900Y126500D01*
X223700Y128750D02*Y126500D01*
Y128750D02*X224450Y129500D01*
X225950D01*
X222950D02*X223700Y128750D01*
X227750Y130250D02*X228500D01*
X227750Y128750D02*X228500D01*
X233000Y132500D02*Y126500D01*
Y132500D02*X235250Y130250D01*
X237500Y132500D01*
Y126500D01*
X239300Y131000D02*Y130250D01*
Y128750D02*Y126500D01*
X241550Y129500D02*X243800D01*
X240800Y128750D02*X241550Y129500D01*
X240800Y128750D02*Y127250D01*
X241550Y126500D01*
X243800D01*
X245600Y132500D02*Y126500D01*
Y128750D02*X246350Y129500D01*
X247850D01*
X248600Y128750D01*
Y126500D01*
X252650Y129500D02*X253400Y128750D01*
X251150Y129500D02*X252650D01*
X250400Y128750D02*X251150Y129500D01*
X250400Y128750D02*Y127250D01*
X251150Y126500D01*
X253400Y129500D02*Y127250D01*
X254150Y126500D01*
X251150D02*X252650D01*
X253400Y127250D01*
X256700Y126500D02*X258950D01*
X255950Y127250D02*X256700Y126500D01*
X255950Y128750D02*Y127250D01*
Y128750D02*X256700Y129500D01*
X258200D01*
X258950Y128750D01*
X255950Y128000D02*X258950D01*
Y128750D02*Y128000D01*
X260750Y132500D02*Y127250D01*
X261500Y126500D01*
X266450Y132500D02*Y126500D01*
X265700Y132500D02*X268700D01*
X269450Y131750D01*
Y130250D01*
X268700Y129500D02*X269450Y130250D01*
X266450Y129500D02*X268700D01*
X272000Y126500D02*X274250D01*
X271250Y127250D02*X272000Y126500D01*
X271250Y128750D02*Y127250D01*
Y128750D02*X272000Y129500D01*
X273500D01*
X274250Y128750D01*
X271250Y128000D02*X274250D01*
Y128750D02*Y128000D01*
X276800Y132500D02*Y127250D01*
X277550Y126500D01*
X276050Y130250D02*X277550D01*
X279800Y126500D02*X282050D01*
X279050Y127250D02*X279800Y126500D01*
X279050Y128750D02*Y127250D01*
Y128750D02*X279800Y129500D01*
X281300D01*
X282050Y128750D01*
X279050Y128000D02*X282050D01*
Y128750D02*Y128000D01*
X284600Y128750D02*Y126500D01*
Y128750D02*X285350Y129500D01*
X286850D01*
X283850D02*X284600Y128750D01*
X289400Y126500D02*X291650D01*
X292400Y127250D01*
X291650Y128000D02*X292400Y127250D01*
X289400Y128000D02*X291650D01*
X288650Y128750D02*X289400Y128000D01*
X288650Y128750D02*X289400Y129500D01*
X291650D01*
X292400Y128750D01*
X288650Y127250D02*X289400Y126500D01*
X294950D02*X297200D01*
X294200Y127250D02*X294950Y126500D01*
X294200Y128750D02*Y127250D01*
Y128750D02*X294950Y129500D01*
X296450D01*
X297200Y128750D01*
X294200Y128000D02*X297200D01*
Y128750D02*Y128000D01*
X299750Y128750D02*Y126500D01*
Y128750D02*X300500Y129500D01*
X301250D01*
X302000Y128750D01*
Y126500D01*
X299000Y129500D02*X299750Y128750D01*
X200000Y147500D02*X203000D01*
X201500D02*Y141500D01*
X204800Y146000D02*Y145250D01*
Y143750D02*Y141500D01*
X207050Y147500D02*Y142250D01*
X207800Y141500D01*
X206300Y145250D02*X207800D01*
X209300Y147500D02*Y142250D01*
X210050Y141500D01*
X212300D02*X214550D01*
X211550Y142250D02*X212300Y141500D01*
X211550Y143750D02*Y142250D01*
Y143750D02*X212300Y144500D01*
X213800D01*
X214550Y143750D01*
X211550Y143000D02*X214550D01*
Y143750D02*Y143000D01*
X216350Y145250D02*X217100D01*
X216350Y143750D02*X217100D01*
X221600Y142250D02*X222350Y141500D01*
X221600Y146750D02*X222350Y147500D01*
X221600Y146750D02*Y142250D01*
X224150Y144500D02*Y142250D01*
X224900Y141500D01*
X226400D01*
X227150Y142250D01*
Y144500D02*Y142250D01*
X229700Y143750D02*Y141500D01*
Y143750D02*X230450Y144500D01*
X231200D01*
X231950Y143750D01*
Y141500D01*
X228950Y144500D02*X229700Y143750D01*
X233750Y147500D02*Y141500D01*
Y143750D02*X236000Y141500D01*
X233750Y143750D02*X235250Y145250D01*
X238550Y143750D02*Y141500D01*
Y143750D02*X239300Y144500D01*
X240050D01*
X240800Y143750D01*
Y141500D01*
X237800Y144500D02*X238550Y143750D01*
X242600D02*Y142250D01*
Y143750D02*X243350Y144500D01*
X244850D01*
X245600Y143750D01*
Y142250D01*
X244850Y141500D02*X245600Y142250D01*
X243350Y141500D02*X244850D01*
X242600Y142250D02*X243350Y141500D01*
X247400Y144500D02*Y142250D01*
X248150Y141500D01*
X248900D01*
X249650Y142250D01*
Y144500D02*Y142250D01*
X250400Y141500D01*
X251150D01*
X251900Y142250D01*
Y144500D02*Y142250D01*
X254450Y143750D02*Y141500D01*
Y143750D02*X255200Y144500D01*
X255950D01*
X256700Y143750D01*
Y141500D01*
X253700Y144500D02*X254450Y143750D01*
X258500Y147500D02*X259250Y146750D01*
Y142250D01*
X258500Y141500D02*X259250Y142250D01*
X263750Y144500D02*X266750D01*
X271250Y147500D02*Y141500D01*
Y147500D02*X274250D01*
X271250Y144500D02*X273500D01*
X278300D02*X279050Y143750D01*
X276800Y144500D02*X278300D01*
X276050Y143750D02*X276800Y144500D01*
X276050Y143750D02*Y142250D01*
X276800Y141500D01*
X279050Y144500D02*Y142250D01*
X279800Y141500D01*
X276800D02*X278300D01*
X279050Y142250D01*
X281600Y147500D02*Y141500D01*
Y142250D02*X282350Y141500D01*
X283850D01*
X284600Y142250D01*
Y143750D02*Y142250D01*
X283850Y144500D02*X284600Y143750D01*
X282350Y144500D02*X283850D01*
X281600Y143750D02*X282350Y144500D01*
X287150Y143750D02*Y141500D01*
Y143750D02*X287900Y144500D01*
X289400D01*
X286400D02*X287150Y143750D01*
X291200Y146000D02*Y145250D01*
Y143750D02*Y141500D01*
X293450Y144500D02*X295700D01*
X292700Y143750D02*X293450Y144500D01*
X292700Y143750D02*Y142250D01*
X293450Y141500D01*
X295700D01*
X299750Y144500D02*X300500Y143750D01*
X298250Y144500D02*X299750D01*
X297500Y143750D02*X298250Y144500D01*
X297500Y143750D02*Y142250D01*
X298250Y141500D01*
X300500Y144500D02*Y142250D01*
X301250Y141500D01*
X298250D02*X299750D01*
X300500Y142250D01*
X303800Y147500D02*Y142250D01*
X304550Y141500D01*
X303050Y145250D02*X304550D01*
X306050Y146000D02*Y145250D01*
Y143750D02*Y141500D01*
X307550Y143750D02*Y142250D01*
Y143750D02*X308300Y144500D01*
X309800D01*
X310550Y143750D01*
Y142250D01*
X309800Y141500D02*X310550Y142250D01*
X308300Y141500D02*X309800D01*
X307550Y142250D02*X308300Y141500D01*
X313100Y143750D02*Y141500D01*
Y143750D02*X313850Y144500D01*
X314600D01*
X315350Y143750D01*
Y141500D01*
X312350Y144500D02*X313100Y143750D01*
X320600Y147500D02*Y141500D01*
X322850Y147500D02*X323600Y146750D01*
Y142250D01*
X322850Y141500D02*X323600Y142250D01*
X319850Y141500D02*X322850D01*
X319850Y147500D02*X322850D01*
X326150Y143750D02*Y141500D01*
Y143750D02*X326900Y144500D01*
X328400D01*
X325400D02*X326150Y143750D01*
X332450Y144500D02*X333200Y143750D01*
X330950Y144500D02*X332450D01*
X330200Y143750D02*X330950Y144500D01*
X330200Y143750D02*Y142250D01*
X330950Y141500D01*
X333200Y144500D02*Y142250D01*
X333950Y141500D01*
X330950D02*X332450D01*
X333200Y142250D01*
X335750Y144500D02*Y142250D01*
X336500Y141500D01*
X337250D01*
X338000Y142250D01*
Y144500D02*Y142250D01*
X338750Y141500D01*
X339500D01*
X340250Y142250D01*
Y144500D02*Y142250D01*
X342050Y146000D02*Y145250D01*
Y143750D02*Y141500D01*
X344300Y143750D02*Y141500D01*
Y143750D02*X345050Y144500D01*
X345800D01*
X346550Y143750D01*
Y141500D01*
X343550Y144500D02*X344300Y143750D01*
X350600Y144500D02*X351350Y143750D01*
X349100Y144500D02*X350600D01*
X348350Y143750D02*X349100Y144500D01*
X348350Y143750D02*Y142250D01*
X349100Y141500D01*
X350600D01*
X351350Y142250D01*
X348350Y140000D02*X349100Y139250D01*
X350600D01*
X351350Y140000D01*
Y144500D02*Y140000D01*
M02*
