G04 start of page 2 for group 0 idx 0 *
G04 Title: (unknown), component *
G04 Creator: pcb 20140316 *
G04 CreationDate: Sun 30 Dec 2018 07:25:55 PM GMT UTC *
G04 For: railfan *
G04 Format: Gerber/RS-274X *
G04 PCB-Dimensions (mil): 970.00 890.00 *
G04 PCB-Coordinate-Origin: lower left *
%MOIN*%
%FSLAX25Y25*%
%LNTOP*%
%ADD16C,0.0380*%
%ADD15C,0.0320*%
%ADD14C,0.0001*%
%ADD13C,0.0600*%
%ADD12C,0.0640*%
%ADD11C,0.0100*%
G54D11*X48500Y60315D02*Y68500D01*
X5193Y64252D02*X25252D01*
X34500Y73500D01*
X53500D01*
X58500Y68500D01*
X5193Y72126D02*X23126D01*
X5193Y17008D02*X48500Y60315D01*
X23126Y72126D02*X34500Y83500D01*
X53500D01*
X58500Y78500D01*
G54D12*X91807Y80000D03*
Y72126D03*
Y64252D03*
Y56378D03*
Y48504D03*
Y40630D03*
Y32756D03*
Y24882D03*
Y17008D03*
Y9134D03*
G54D13*X38500Y68500D03*
G54D14*G36*
X1993Y83200D02*Y76800D01*
X8393D01*
Y83200D01*
X1993D01*
G37*
G54D12*X5193Y72126D03*
G54D14*G36*
X55500Y81500D02*Y75500D01*
X61500D01*
Y81500D01*
X55500D01*
G37*
G54D13*X48500Y78500D03*
X38500D03*
X58500Y68500D03*
X48500D03*
G54D12*X5193Y64252D03*
Y56378D03*
Y48504D03*
Y40630D03*
Y32756D03*
Y24882D03*
Y17008D03*
Y9134D03*
G54D15*G54D16*G54D15*G54D16*G54D15*M02*
