M48
INCH
T26C0.038
T25C0.032
%
T25
X000519Y008000
X000519Y007213
X000519Y006425
X000519Y005638
X000519Y004850
X000519Y004063
X000519Y003276
X000519Y002488
X000519Y001701
X000519Y000913
X009181Y008000
X009181Y007213
X009181Y006425
X009181Y005638
X009181Y004850
X009181Y004063
X009181Y003276
X009181Y002488
X009181Y001701
X009181Y000913
T26
X003850Y007850
X003850Y006850
X004850Y007850
X004850Y006850
X005850Y007850
X005850Y006850
M30
